<svg xmlns="http://www.w3.org/2000/svg" style="display:none">
  <symbol id="i-book" viewBox="0 0 24 24"><path d="M4 5a2 2 0 0 1 2-2h12v18H6a2 2 0 0 1-2-2z"/><path d="M8 3v16"/></symbol>
  <symbol id="i-cart" viewBox="0 0 24 24"><circle cx="9" cy="20" r="1"/><circle cx="18" cy="20" r="1"/><path d="M2 3h3l2.4 12.4a2 2 0 0 0 2 1.6h7.7a2 2 0 0 0 2-1.6L23 7H6"/></symbol>
  <symbol id="i-user" viewBox="0 0 24 24"><circle cx="12" cy="8" r="4"/><path d="M4 21a8 8 0 0 1 16 0"/></symbol>
  <symbol id="i-logout" viewBox="0 0 24 24"><path d="M9 21H5a2 2 0 0 1-2-2V5a2 2 0 0 1 2-2h4"/><path d="M16 17l5-5-5-5"/><path d="M21 12H9"/></symbol>
  <symbol id="i-box" viewBox="0 0 24 24"><path d="M21 8l-9-5-9 5v8l9 5 9-5z"/><path d="M3 8l9 5 9-5"/><path d="M12 13v8"/></symbol>
  <symbol id="i-chart" viewBox="0 0 24 24"><path d="M3 3v18h18"/><path d="M7 14v3"/><path d="M12 9v8"/><path d="M17 5v12"/></symbol>
  <symbol id="i-shield" viewBox="0 0 24 24"><path d="M12 3l8 3v6c0 5-3.5 8-8 9-4.5-1-8-4-8-9V6z"/></symbol>
  <symbol id="i-tag" viewBox="0 0 24 24"><path d="M3 12V5a2 2 0 0 1 2-2h7l9 9-9 9z"/><circle cx="8" cy="8" r="1.5"/></symbol>
  <symbol id="i-plus" viewBox="0 0 24 24"><path d="M12 5v14"/><path d="M5 12h14"/></symbol>
  <symbol id="i-check" viewBox="0 0 24 24"><path d="M20 6L9 17l-5-5"/></symbol>
  <symbol id="i-x" viewBox="0 0 24 24"><path d="M18 6 6 18"/><path d="M6 6l12 12"/></symbol>
  <symbol id="i-chev" viewBox="0 0 24 24"><path d="M9 6l6 6-6 6"/></symbol>
  <symbol id="i-search" viewBox="0 0 24 24"><circle cx="11" cy="11" r="8"/><path d="M21 21l-4.35-4.35"/></symbol>
</svg>
